<?xml version="1.0" standalone="no"?>
<!DOCTYPE svg PUBLIC "-//W3C//DTD SVG 20010904//EN"
 "http://www.w3.org/TR/2001/REC-SVG-20010904/DTD/svg10.dtd">
<svg version="1.0" xmlns="http://www.w3.org/2000/svg"
 width="512.000000pt" height="512.000000pt" viewBox="0 0 512.000000 512.000000"
 preserveAspectRatio="xMidYMid meet">

<g transform="translate(0.000000,512.000000) scale(0.100000,-0.100000)"
fill="#000000" stroke="none">
<path d="M2375 4794 c-108 -11 -262 -38 -367 -65 -757 -187 -1380 -789 -1596
-1539 -68 -235 -87 -373 -86 -635 0 -179 4 -243 22 -345 86 -500 305 -919 658
-1260 272 -263 595 -448 952 -546 223 -61 348 -77 597 -78 242 -1 343 11 559
65 620 155 1161 592 1453 1174 90 179 172 440 209 670 25 152 25 485 1 645
-152 985 -909 1746 -1887 1895 -101 15 -432 28 -515 19z m386 -164 c727 -74
1364 -520 1675 -1175 274 -577 270 -1242 -11 -1810 -204 -413 -527 -737 -942
-946 -791 -398 -1762 -239 -2393 391 -167 168 -289 339 -395 555 -502 1021
-91 2251 925 2769 348 178 755 254 1141 216z"/>
<path d="M2505 4215 l-25 -24 0 -828 0 -828 335 -502 c263 -395 340 -504 360
-509 51 -13 105 31 105 84 0 9 -144 233 -320 497 l-320 480 0 803 0 803 -25
24 c-15 16 -36 25 -55 25 -19 0 -40 -9 -55 -25z"/>
</g>
</svg>
