<svg width="21" height="21" viewBox="0 0 21 21" fill="none" xmlns="http://www.w3.org/2000/svg">
<path d="M3.72754 13.9913C3.72754 15.5838 3.72754 15.5838 5.23254 16.5988L9.37129 18.9875C9.99254 19.3463 11.0075 19.3463 11.6288 18.9875L15.7675 16.5988C17.2725 15.5838 17.2725 15.5838 17.2725 13.9913V9.64251C17.2725 8.05001 17.2725 8.05001 15.7675 7.03501L11.6288 4.64626C11.0075 4.28751 9.99254 4.28751 9.37129 4.64626L5.23254 7.03501C3.72754 8.05001 3.72754 8.05001 3.72754 9.64251V13.9913Z" stroke="#757575" stroke-width="1.5" stroke-linecap="round" stroke-linejoin="round"/>
<path d="M15.3125 6.67625V4.375C15.3125 2.625 14.4375 1.75 12.6875 1.75H8.3125C6.5625 1.75 5.6875 2.625 5.6875 4.375V6.615" stroke="#757575" stroke-width="1.5" stroke-linecap="round" stroke-linejoin="round"/>
<path d="M11.5501 10.3948C11.6288 10.5173 11.8038 10.6398 11.9351 10.6748L12.8276 10.9023C13.3788 11.0423 13.5276 11.5148 13.1688 11.9523L12.5826 12.6611C12.4951 12.7748 12.4251 12.9761 12.4338 13.1161L12.4863 14.0348C12.5213 14.6036 12.1188 14.8923 11.5938 14.6823L10.7363 14.3411C10.6051 14.2886 10.3863 14.2886 10.2551 14.3411L9.39755 14.6823C8.87255 14.8923 8.47005 14.5948 8.50505 14.0348L8.55755 13.1161C8.5663 12.9761 8.4963 12.7661 8.4088 12.6611L7.82255 11.9523C7.4638 11.5148 7.61255 11.0423 8.1638 10.9023L9.0563 10.6748C9.1963 10.6398 9.3713 10.5086 9.4413 10.3948L9.94005 9.61609C10.2551 9.14359 10.7451 9.14359 11.0513 9.61609L11.5501 10.3948Z" stroke="#757575" stroke-width="1.5" stroke-linecap="round" stroke-linejoin="round"/>
</svg>
