<svg width="14" height="14" viewBox="0 0 14 14" fill="none" xmlns="http://www.w3.org/2000/svg">
<path d="M4.66675 1.1665C2.33341 1.1665 1.16675 2.33317 1.16675 4.6665V12.2498C1.16675 12.5707 1.42925 12.8332 1.75008 12.8332H9.33341C11.6667 12.8332 12.8334 11.6665 12.8334 9.33317V4.6665C12.8334 2.33317 11.6667 1.1665 9.33341 1.1665H4.66675Z" stroke="#148D4F" stroke-linecap="round" stroke-linejoin="round"/>
<path d="M4.50337 7.60092C4.38671 7.71759 4.27588 7.94509 4.25255 8.10842L4.08921 9.26342C4.03088 9.68342 4.32254 9.97509 4.74254 9.91676L5.89753 9.75342C6.06087 9.73009 6.28838 9.61926 6.40505 9.50259L9.43255 6.47509C9.95172 5.95592 10.2025 5.34925 9.43255 4.57925C8.66255 3.80342 8.05588 4.04842 7.53088 4.57342L4.50337 7.60092Z" stroke="#148D4F" stroke-linecap="round" stroke-linejoin="round"/>
<path d="M7.09912 5.00488C7.35579 5.92072 8.07329 6.64405 8.99495 6.90072" stroke="#148D4F" stroke-linecap="round" stroke-linejoin="round"/>
</svg>
