<?xml version="1.0" standalone="no"?>
<!DOCTYPE svg PUBLIC "-//W3C//DTD SVG 20010904//EN"
 "http://www.w3.org/TR/2001/REC-SVG-20010904/DTD/svg10.dtd">
<svg version="1.0" xmlns="http://www.w3.org/2000/svg"
 width="512.000000pt" height="512.000000pt" viewBox="0 0 512.000000 512.000000"
 preserveAspectRatio="xMidYMid meet">

<g transform="translate(0.000000,512.000000) scale(0.100000,-0.100000)"
fill="#000000" stroke="none">
<path d="M3795 5049 c-116 -22 -217 -63 -320 -132 -84 -56 -2801 -2771 -2815
-2812 -18 -58 -260 -1278 -260 -1315 0 -46 8 -53 175 -165 290 -194 573 -341
805 -419 200 -66 286 -81 475 -80 182 1 263 17 394 79 110 52 179 107 346 272
83 81 176 163 206 181 362 213 848 37 1468 -533 79 -73 107 -80 146 -40 40 39
33 71 -27 128 -399 374 -785 607 -1098 663 -157 28 -335 11 -464 -43 -102 -43
-163 -89 -330 -251 -104 -102 -188 -174 -236 -204 -306 -190 -721 -139 -1255
153 -149 82 -365 221 -350 225 6 1 249 50 540 109 292 58 544 110 560 115 35
12 2759 2733 2819 2817 52 73 111 205 131 293 23 105 22 263 -4 365 -12 44
-42 123 -67 175 -40 81 -61 108 -143 190 -53 52 -122 110 -154 129 -156 91
-372 131 -542 100z m290 -154 c445 -113 638 -638 371 -1009 -24 -33 -94 -110
-155 -171 l-111 -110 -460 460 -461 460 138 136 c121 118 150 141 223 177 47
23 110 48 140 56 74 20 240 20 315 1z m-1170 -2565 c-643 -644 -1173 -1169
-1178 -1167 -4 1 -212 207 -462 457 l-455 455 1172 1172 1173 1173 460 -460
460 -460 -1170 -1170z m-1328 -1236 c-6 -5 -1018 -206 -1021 -203 -2 2 43 231
99 509 57 278 104 507 104 510 1 3 185 -179 411 -405 225 -225 408 -410 407
-411z"/>
</g>
</svg>
