<svg width="40" height="40" viewBox="0 0 40 40" fill="none" xmlns="http://www.w3.org/2000/svg">
<circle cx="20" cy="20" r="19" stroke="white" stroke-opacity="0.82" stroke-width="2"/>
<path d="M20.1653 11.9856C18.6018 12.0137 17.0862 12.5299 15.8305 13.4619C14.5748 14.3939 13.6419 15.6951 13.1621 17.1835C12.6824 18.6719 12.6799 20.273 13.155 21.7629C13.6301 23.2527 14.559 24.5568 15.8117 25.4928C16.0027 25.636 16.1289 25.8492 16.1627 26.0855C16.1965 26.3218 16.135 26.5618 15.9917 26.7528C15.8485 26.9437 15.6353 27.0699 15.399 27.1037C15.1627 27.1375 14.9227 27.076 14.7317 26.9328C13.2208 25.8032 12.089 24.2409 11.4867 22.4531C10.8844 20.6654 10.8401 18.7367 11.3595 16.9231C11.879 15.1096 12.9377 13.4968 14.3952 12.299C15.8526 11.1013 17.6399 10.375 19.5197 10.2168L18.8189 9.51355C18.66 9.34294 18.5734 9.11728 18.5775 8.88412C18.5816 8.65096 18.6761 8.4285 18.841 8.2636C19.0059 8.09871 19.2284 8.00425 19.4615 8.00014C19.6947 7.99603 19.9203 8.08257 20.0909 8.24155L22.6373 10.7868C22.8059 10.9555 22.9005 11.1842 22.9005 11.4228C22.9005 11.6613 22.8059 11.89 22.6373 12.0588L20.0909 14.6064C19.9203 14.7653 19.6947 14.8519 19.4615 14.8478C19.2284 14.8436 19.0059 14.7492 18.841 14.5843C18.6761 14.4194 18.5816 14.1969 18.5775 13.9638C18.5734 13.7306 18.66 13.505 18.8189 13.3344L20.1653 11.9856ZM20.4413 26.9832C22.0049 26.955 23.5205 26.4388 24.7762 25.5068C26.0319 24.5748 26.9648 23.2736 27.4446 21.7852C27.9243 20.2968 27.9268 18.6957 27.4517 17.2058C26.9766 15.716 26.0477 14.4119 24.7949 13.476C24.604 13.3327 24.4777 13.1195 24.444 12.8832C24.4102 12.6469 24.4717 12.4069 24.6149 12.216C24.7582 12.025 24.9714 11.8988 25.2077 11.865C25.444 11.8312 25.684 11.8927 25.8749 12.036C27.3859 13.1655 28.5177 14.7278 29.12 16.5156C29.7223 18.3033 29.7666 20.232 29.2472 22.0456C28.7277 23.8592 27.669 25.4719 26.2115 26.6697C24.7541 27.8674 22.9668 28.5937 21.0869 28.752L21.7877 29.454C21.8737 29.5369 21.9423 29.6362 21.9896 29.746C22.0368 29.8558 22.0617 29.9739 22.0628 30.0934C22.0639 30.2129 22.0411 30.3314 21.9959 30.442C21.9507 30.5526 21.884 30.6532 21.7995 30.7377C21.715 30.8222 21.6146 30.8891 21.504 30.9344C21.3934 30.9797 21.2749 31.0026 21.1554 31.0016C21.0359 31.0006 20.9178 30.9758 20.808 30.9287C20.6981 30.8816 20.5988 30.8131 20.5157 30.7272L17.9693 28.182C17.8008 28.0132 17.7061 27.7845 17.7061 27.546C17.7061 27.3074 17.8008 27.0787 17.9693 26.91L20.5157 24.3636C20.5981 24.2751 20.6975 24.2042 20.8079 24.155C20.9183 24.1058 21.0375 24.0794 21.1583 24.0772C21.2792 24.0751 21.3992 24.0973 21.5113 24.1426C21.6233 24.1879 21.7251 24.2552 21.8106 24.3407C21.896 24.4262 21.9634 24.528 22.0087 24.64C22.054 24.7521 22.0762 24.8721 22.0741 24.993C22.0719 25.1138 22.0455 25.233 21.9963 25.3434C21.9471 25.4538 21.8762 25.5532 21.7877 25.6356L20.4413 26.9832V26.9832Z" fill="white"/>
</svg>
