<svg width="21" height="21" viewBox="0 0 21 21" fill="none" xmlns="http://www.w3.org/2000/svg">
<path d="M14 19.25C17.5175 19.25 18.1475 17.8413 18.3312 16.1263L18.9875 9.12625C19.2237 6.99125 18.6112 5.25 14.875 5.25H6.12497C2.38872 5.25 1.77622 6.99125 2.01247 9.12625L2.66872 16.1263C2.85247 17.8413 3.48247 19.25 6.99997 19.25H14Z" stroke="#757575" stroke-width="1.5" stroke-linecap="round" stroke-linejoin="round"/>
<path d="M7 5.25V4.55C7 3.00125 7 1.75 9.8 1.75H11.2C14 1.75 14 3.00125 14 4.55V5.25" stroke="#757575" stroke-width="1.5" stroke-linecap="round" stroke-linejoin="round"/>
<path d="M12.25 12.25C12.25 12.2587 12.25 12.2588 12.25 12.2675C12.25 13.2213 12.2413 14 10.5 14C8.7675 14 8.75 13.23 8.75 12.2762V11.375C8.75 10.5 8.75 10.5 9.625 10.5H11.375C12.25 10.5 12.25 10.5 12.25 11.375V12.25Z" stroke="#757575" stroke-width="1.5" stroke-linecap="round" stroke-linejoin="round"/>
<path d="M18.9438 9.625C16.9225 11.095 14.6125 11.97 12.25 12.2675" stroke="#757575" stroke-width="1.5" stroke-linecap="round" stroke-linejoin="round"/>
<path d="M2.29248 9.86133C4.26123 11.2088 6.48373 12.0226 8.74998 12.2763" stroke="#757575" stroke-width="1.5" stroke-linecap="round" stroke-linejoin="round"/>
</svg>
