<?xml version="1.0" standalone="no"?>
<!DOCTYPE svg PUBLIC "-//W3C//DTD SVG 20010904//EN"
 "http://www.w3.org/TR/2001/REC-SVG-20010904/DTD/svg10.dtd">
<svg version="1.0" xmlns="http://www.w3.org/2000/svg"
 width="24.000000pt" height="24.000000pt" viewBox="0 0 24.000000 24.000000"
 preserveAspectRatio="xMidYMid meet">

<g transform="translate(0.000000,24.000000) scale(0.100000,-0.100000)"
fill="#000000" stroke="none">
<path d="M58 185 c-27 -20 -48 -39 -48 -43 1 -7 85 -72 95 -72 3 0 5 9 5 20 0
41 80 18 110 -32 24 -40 28 -15 6 37 -15 35 -67 75 -98 75 -10 0 -18 10 -20
26 l-3 26 -47 -37z m63 -25 c27 0 60 -18 81 -44 24 -29 23 -43 -1 -22 -11 10
-38 20 -60 23 -33 5 -41 3 -41 -11 0 -22 -10 -20 -48 12 l-34 28 39 27 c36 26
38 27 41 7 2 -12 11 -20 23 -20z"/>
</g>
</svg>
