<?xml version="1.0" standalone="no"?>
<!DOCTYPE svg PUBLIC "-//W3C//DTD SVG 20010904//EN"
 "http://www.w3.org/TR/2001/REC-SVG-20010904/DTD/svg10.dtd">
<svg version="1.0" xmlns="http://www.w3.org/2000/svg"
 width="24.000000pt" height="24.000000pt" viewBox="0 0 24.000000 24.000000"
 preserveAspectRatio="xMidYMid meet">

<g transform="translate(0.000000,24.000000) scale(0.100000,-0.100000)"
fill="#000000" stroke="none">
<path d="M130 166 c0 -8 -16 -20 -35 -26 -39 -13 -59 -38 -71 -85 l-7 -30 24
28 c29 33 89 49 89 23 0 -24 21 -19 60 14 l34 30 -34 30 c-38 32 -60 38 -60
16z m60 -32 c13 -14 11 -19 -15 -42 -26 -22 -30 -23 -33 -9 -4 21 -37 22 -75
3 -15 -8 -27 -11 -27 -7 0 14 45 50 73 56 15 4 27 14 27 21 0 17 28 5 50 -22z"/>
</g>
</svg>
