<?xml version="1.0" encoding="utf-8"?>
<!-- Generator: Adobe Illustrator 24.2.0, SVG Export Plug-In . SVG Version: 6.00 Build 0)  -->
<svg version="1.1" id="Layer_1" xmlns="http://www.w3.org/2000/svg" xmlns:xlink="http://www.w3.org/1999/xlink" x="0px" y="0px"
	 viewBox="0 0 900 900" enable-background="new 0 0 900 900" xml:space="preserve">
<g>
	<path fill="#062A7A" d="M402.53,15.87c0.31-0.35,0.95-1.04,1.27-1.39c5.79-0.46,28.71,2,34.45,2.55
		c29.33,2.55,58.3,8.52,86.71,16.17c71.01,20.12,137.74,55.85,193.03,104.83c12.43,11.19,24.59,22.75,35.63,35.34
		c5.99,5.78,10.89,12.52,16.37,18.75c11.94,15.01,23.4,30.47,33.16,47.01c14.03,21.82,24.98,45.45,34.7,69.45
		c9.42,25.39,17.03,51.53,21.41,78.28c1.13,9.07,3.49,17.99,3.58,27.17c1.07,6.13,0.42,12.4,1.61,18.53
		c0.44,15.39,0.33,30.8,0.06,46.2c-1.1,9.26-1.3,18.58-2.41,27.84c-1.73,9.03-2.67,18.19-4.51,27.21
		c-5.01,24.03-11.61,47.78-20.67,70.63c-17.29,44.19-42.3,85.22-72.85,121.49c-5.13,6.83-11.82,12.27-17.08,19
		c-11.7,12.38-24.17,24.02-37.11,35.1c-33.86,29.53-72.65,53.04-113.47,71.63c-8.49,4.17-17.21,7.82-26.17,10.85
		c-11.66,4.81-23.81,8.2-35.78,12.11c-7.97,2.15-15.78,4.89-23.9,6.48c-4.45,1.65-9.29,1.18-13.77,2.72
		c-2.36,0.78-4.84,0.83-7.29,0.93c-2.2,1.31-4.69,1.85-7.23,1.9c-10.14,1.87-20.27,3.86-30.43,5.65c-4.77-0.04-9.46,0.54-14.17,1.2
		c27.35-6.25,55.7-12.48,79.3-28.43c4.77-3.24,9.61-6.39,14.5-9.45c55.61-35.78,95.08-95.3,107.06-160.26
		c2.46-10.29,2.57-20.89,3.9-31.33c0.33-9.02,0.11-18.06-0.03-27.08c-0.91-7.24-1.43-14.52-2.25-21.77
		c-2.93-17.72-7.02-35.34-13.72-52.05c-18.18-47.31-51.33-88.78-93.61-116.75c-16.35-10.73-33.72-20.05-52.22-26.48
		c-24.43-9.14-50.41-14.34-76.49-14.63c-0.37-0.31-1.11-0.91-1.48-1.21c-0.25-16.55-0.15-33.11-0.03-49.67
		c13.31,0.85,26.58,2.5,39.68,5.14c15.49,2.31,30.38,7.39,45.14,12.45c62.46,21.95,117.16,65.99,150.77,123.15
		c12.59,21.58,22.36,44.87,28.13,69.21c3.14,10.11,4.05,20.7,5.99,31.06c0.22,6.07,1.35,12.06,1.31,18.15
		c1.43,10.29,0.59,20.71-0.55,30.98c-2.31,32.45-11.11,64.47-25.55,93.63c-9.39,19.49-21.59,37.46-35.07,54.32
		c-11.91,13.41-24.41,26.42-38.48,37.6c-9.52,7.94-19.75,14.97-30.09,21.8c-3.4,2.04-6.76,4.25-9.46,7.2
		c6.62-2.52,12.49-6.6,18.49-10.29c32.56-20.35,61.07-47.09,83.55-78.2c5.91-7.61,10.51-16.12,15.73-24.2
		c16.39-28.33,27.59-59.59,33.42-91.78c1.95-15.14,4.12-30.31,3.89-45.61c0.01-7.34,0.25-14.71-0.92-21.97
		c0.42-7.48-2.17-14.62-2.3-22.05c-10.67-67.65-47.4-130.55-100.19-174.02c-14.62-12.76-31.07-23.2-47.8-32.95
		c-16.86-9.58-34.87-16.96-53.26-23.02c-6.59-2.05-20.88-6.02-21.14-6.37c-14.75-3.75-29.79-6.32-44.89-8.07
		c-5,0.03-9.94-0.61-14.87-1.3c-0.39-0.29-1.15-0.88-1.53-1.17c-0.16-16.05-0.17-32.12,0.01-48.16c8.37-0.61,5.63-0.47,8.37-0.61
		c14.76,0.04,29.23,3.32,43.8,5.35c20.75,4.58,41.36,10.08,61.13,17.95c34.78,13.84,67.53,33.04,96.03,57.35
		c51.62,43.36,89.68,103.45,103.85,169.59c3.71,14.89,4.83,30.24,6.58,45.44c0.06,16.33,1.01,32.8-1.59,49
		c-4.68,47.79-22.32,93.93-48.76,133.89c-22.69,33.06-50.85,62.63-83.97,85.35c-5.87,4.58-12.17,8.56-18.34,12.7
		c-4.21,2.75-8.83,4.87-12.81,7.98c12.59-6.33,24.81-13.51,36.2-21.83c13.04-8.68,25.5-18.32,36.55-29.45
		c20.33-17.76,37.69-38.67,52.87-60.95c23.92-35.82,40.77-76.45,48.59-118.84c1.98-11.96,4.17-23.96,4.53-36.11
		c1.32-10.18,0.46-20.49,0.7-30.73c-1.34-39.9-10.39-79.6-26.42-116.21c-14.01-31.87-33.2-61.43-56.49-87.29
		c-9.09-10.83-19.51-20.45-30.2-29.65c-48.55-42.78-109.34-71.07-172.94-82.33c-15.4-2.39-30.85-4.86-46.45-5
		c-0.32-0.36-0.96-1.07-1.28-1.43c-0.15-13.37,0.05-26.74-0.09-40.11c0.13-1.92-0.58-4.28,1.31-5.56
		c6.11-0.46,12.08,1.22,18.18,1.09c6-0.07,11.78,1.92,17.77,2.07c52.24,6.93,103.15,24.39,148.57,51.15
		c19.02,11.87,37.77,24.39,54.55,39.34c46.41,39.77,83.07,91.33,103.44,149.09c7.66,20.81,12.64,42.52,15.99,64.41
		c1.92,6.65,0.75,13.62,2.08,20.36c0.62,9,0.33,18.05,0.47,27.07c-0.25,10,0.35,20.06-1.12,29.99c0.51,12.13-3.31,23.79-4.64,35.73
		c-1.2,5.35-2.94,10.57-3.82,16c-11.28,43.07-30.9,84.03-57.8,119.55c-12.2,17.22-26.65,32.72-41.92,47.23
		c-10.09,10.05-21.4,18.77-32.71,27.39c-12.19,9.5-25.25,17.86-38.77,25.34c-13.71,8.04-27.94,15.17-42.42,21.72
		c-5.04,2.08-10.14,4.11-14.85,6.88c4.24-0.83,8.16-2.7,12.12-4.37c26.62-10.45,52.21-23.59,76.14-39.25
		c12.33-7.79,23.68-16.97,35.21-25.87c10.71-8.57,20.77-17.92,30.34-27.75c21.41-21.08,39.71-45.17,55.37-70.78
		c24.35-40.25,40.66-85.35,47.46-131.91c0.38-6.63,2.43-13.07,2.2-19.74c1.6-14.98,0.96-30.11,0.96-45.15
		c0.2-6.82-1.1-13.54-1.24-20.35c-1.38-7.35-1.6-14.86-3.13-22.18c-12.11-74.14-49.3-143.4-102.42-196.26
		c-37.35-37.53-82.27-67.55-131.3-87.55c-18.81-8.51-38.61-14.62-58.59-19.65c-9.13-2.78-18.63-3.87-27.86-6.19
		c-13.25-2.12-26.53-4.11-39.89-5.31c-6.51,0.19-12.9-1.36-19.42-1.03c-0.51-14.2-0.04-28.42-0.26-42.62
		c-0.33-1.9,1.89-2.8,3.45-2.41c6.07-0.19,33.43,2.64,41.07,3.65c38.81,5,76.96,15.17,113.1,30.18
		c52.21,20.77,99.89,52.35,140.19,91.43c26.88,26.86,50.54,57.13,68.88,90.46c14.98,27.3,27.06,56.25,34.92,86.41
		c1.64,7.59,4.18,14.98,5.29,22.68c1.32,9.58,4.17,18.98,4.25,28.71c0.75,8,2.18,15.94,2.01,24c0.24,14.53,0.22,29.07-0.17,43.6
		c-0.82,7.56-1.65,15.12-2.14,22.71c-1.04,8.98-3.39,17.74-4.62,26.7c-10.44,49.12-30.73,96.16-59.37,137.42
		c-8.19,12.26-17.73,23.55-27.04,34.96c-8.45,9.5-17.51,18.43-26.39,27.53c-16.38,14.75-32.96,29.37-51.2,41.82
		c-5.39,4.09-11.43,7.45-16.07,12.44C667.22,806.8,701.27,777.12,731,744c18.69-21.21,35.23-44.32,49.23-68.89
		c24.75-42.71,41.14-90.29,47.93-139.17c1.85-9.89,2.18-19.96,3.26-29.93c0.24-15.67,0.29-31.34,0.03-47.01
		c-2.74-44.65-13.26-88.83-30.82-129.99c-19.07-44.11-45.9-84.84-78.94-119.72c-6.08-6.91-12.8-13.21-19.67-19.3
		c-8.37-8.77-18.09-16.04-27.35-23.81c-15.99-12.03-32.24-23.79-49.4-34.1c-22.67-13.54-46.55-25.04-71.31-34.2
		c-48.37-18.3-99.78-28.87-151.44-30.35C402.51,50.31,402.48,33.09,402.53,15.87z"/>
	<path fill="#062A7A" d="M305.73,223.2l25.214-0.325c0,0,22.206,39.505,30.266,52.165c0.54-17.52,0.22-52.6,0.22-52.6l15.731-0.194
		l0.229,71.144c0,0-15.94,0.17-23.9-0.02c-2.6-2.84-3.86-6.61-5.83-9.88c-8.14-14.03-25.654-44.888-25.654-44.888l0.354,54.788
		l-16.49-0.21L305.73,223.2z"/>
	<path fill="#062A7A" d="M216.68,221.71c8.12,0.2,24.4,0.29,24.4,0.29s13.78,24.05,20.76,36.01c3.15,5.28,10.677,17.05,10.677,17.05
		l-0.007-52.67c0,0,10.05,0.02,15.08,0.05c0.06,23.68,0.12,47.37-0.03,71.05c-7.93-0.26-23.8-0.24-23.8-0.24l-31.247-54.412
		c0,0,0.177,39.492,0.087,54.682c-5.33-0.16-10.67-0.02-16-0.13C216.7,269.5,216.57,245.6,216.68,221.71z"/>
	<g>
		<path fill="#062A7A" d="M42.16,222.51c10.61-0.23,21.22,0.05,31.84-0.07c10.68-0.46,21.96,2.19,30.33,9.12
			c5.22,4.16,8.33,10.45,9.98,16.8c0.58,6.11,0.64,12.33,0.04,18.44c-1.81,7.32-6.16,14.11-12.62,18.17
			c-7.71,5.79-17.65,6.38-26.76,8.33c-10.34,0.35-32.961,0.178-32.961,0.178L41.5,260.51c0,0-4.07,0.04-6.11,0.07
			c-0.05-2.4-0.06-4.81-0.02-7.21c2.26-0.06,6.79-0.16,6.79-0.16S42.22,232.74,42.16,222.51z M59.349,233.947
			c-0.02,5.88,0.221,18.463,0.221,18.463l12.76,0.08l0.13,8.03l-12.54,0.08l-0.35,20.87c0,0,9.61,0.04,14.41,0.15
			c8.36,0,17.47-3.89,21.23-11.75c3.21-5.67,2.64-12.44,2.11-18.67c-1.49-5.55-4.73-11.1-10.06-13.71
			C79.14,233.27,59.729,233.657,59.349,233.947z"/>
	</g>
	<path fill="#062A7A" d="M130.55,222.55l16.629-0.161l0.421,28.931l35.326,0.031l-0.206-28.641l16.95-0.27c0,0,0.02,47.36,0,71.03
		c-5.73-0.08-15.524-0.034-15.524-0.034l-0.366-31.113c0,0-24.67,0.088-36.33,0.108c0.12,10.08,0.06,30.26,0.06,30.26h-17.12
		L130.55,222.55z"/>
	<path fill="#062A7A" d="M353.72,568.53c4.54-0.92,9.29-1.71,13.87-0.66c4.77,1.52,6.51,7.35,5.66,11.86
		c-1.21,6.08-3.71,12.05-7.76,16.79c-2.91,3.48-7.66,4.18-11.21,6.72c-2.91,2.5-4.19,6.37-7.06,8.91c-2.65,0.68-5.86,0.59-7.74-1.67
		c-6.83-7.06-5.55-18.05-10.83-25.96c-4.5-6.46-15.68-2.68-17.01,4.63c-1.1,4.99,1.97,9.43,3.13,14.1
		c-0.41,0.29-1.25,0.87-1.67,1.17c-5.2,0.71-10.46-0.31-15.66,0.3c-2.55,0.87-5.04,2.77-5.99,5.33c-0.3,2.94-0.79,6.67,1.94,8.66
		c2.98,3.19,7.63,3.17,11.66,2.99c5.28,0.34,7.43-5.98,12.13-7.06c4.79,0.57,10.79,2.42,12.18,7.68c0.22,2.75-1.23,5.27-2.07,7.83
		c-3.36,0.37-7.89,0.05-9.47,3.79c-2.75,6.43-2.65,15.29-9.68,18.96c-5.83,2.23-11.95-1.78-17.91-0.16
		c-1.43,1.56-2.28,3.53-3.24,5.41c1.28,0.47,2.57,0.93,3.87,1.38c-2.85,3.4-0.09,8.47,3.42,10.14c5.34,2.53,11.29,4.58,17.27,3.65
		c3.87-0.67,7.87-1.41,11.78-0.63c4.74,1.71,8.68,5.02,13.27,7.05c4.17,4.04,8.32,8.12,12.37,12.28c2.51,2.55,3.33,6.57,1.63,9.8
		c-4.15,9.99-14.66,14.72-21.27,22.73c-4.51,5.27-2.93,13.21-7.35,18.48c-1.72,2.15-5.73,3.65-7.23,0.45
		c-3.79-7.59-2.37-16.57-1.17-24.63c0.29-4.45,0.4-8.95-0.23-13.37c-2.92-11.97-10.19-22.47-19.06-30.84
		c-3.09-2.99-7.45-3.69-11.35-5.02c-1.24-0.2-1.4-1.65-1.93-2.53c-4.34-2.69-9.44-4.28-13.08-8.01c-2.47-2.47-4.7-5.22-6.28-8.35
		c-2.44-5.92-0.2-12.29-1.22-18.38c-1.59-4.01-4.97-6.87-7.84-9.94c-2.57-2.59-5.07-5.56-8.65-6.7c-7.06-1.16-13.98,3.74-20.98,1.24
		c-5.26-2.66-9.44-8.58-8.51-14.66c0.34-3.8,4.12-6.51,7.75-6.78c6.12-0.41,12.35-0.36,18.38,0.93c7.71,1.27,15.37,4.25,23.28,2.72
		c-1.15-2.15-2.61-4.14-3.43-6.43c-0.45-3.99,2.73-7.27,5.95-9.1c3.63-2.41,8.86-3.6,10.18-8.32c3.68,1.61,7.84,1.64,11.68,0.58
		c12.6-3.69,25.77-4.47,38.75-5.92C335.87,568.89,344.94,570.58,353.72,568.53z"/>
	<path fill="#062A7A" d="M486.01,589.33c6.1-0.33,9.62-7.52,15.89-6.77c4.98,1.31,7.47,6.25,10.48,9.95
		c2.34,2.63,5.53,5.68,9.36,4.74c1.26-0.19,2.53-0.38,3.8-0.57c3.92-0.45,7.33-2.54,10.98-3.84c2.72-0.72,5.61-0.74,8.39-0.38
		c3.85,1.23,7.25,3.81,11.38,4.21c6.1,1.25,12.33,0.03,18.47,0.77c4.04,0.38,7.47,4.44,6.71,8.53c-0.91,5.13-4.71,9.72-9.58,11.54
		c-7.4,1.38-13.43-5.08-20.72-4.65c-4.15,0.61-9.07,2.2-10.61,6.54c-0.22,4.63,2.36,9.17,0.97,13.84c-2.08,2.31-5.55,1.22-8.3,1.6
		c-2.03,4.33-2.87,9.04-3.78,13.7c-0.2,0.62-0.59,1.85-0.79,2.47c-7.44,1.72-13.32,7.03-18.26,12.58c-1.96,1.67-0.65,4.33-0.49,6.48
		c-0.74,0.54-1.49,1.07-2.21,1.64c-0.45,0.33-1.34,1-1.79,1.33c2.95,3.18,7.39,5.38,11.75,3.87c2.64,1.79,5.36,3.52,7.73,5.7
		c0.23,2.1,0.6,4.48-0.3,6.47c-3.15,2.32-6.68,4.29-10.44,5.4c-5.05,0.06-10.27-1.63-13.71-5.44c-4.2-4.2-5.6-10.14-8-15.37
		c0.63-0.14,1.26-0.27,1.91-0.39c-0.76-2.69-1.35-5.44-2.51-7.97c-1.12-2.44-4.72-3.68-6.81-1.7c-4.02,2.53-7.15,7.75-12.54,6.98
		c-2.66,0.15-4.14-2.36-5.75-4.02c1.59-2.71,3-5.83,2.13-9.03c-1.3-2.78-4.65-3.32-7.34-3.75c-4.67-0.41-9.38-0.25-14.01,0.41
		c-5.92,0.77-11.9,0.13-17.83,0.65c-1.5,0.2-3.99,2.1-2.51,3.62c2.97,3.54,6.56,6.63,10.57,8.96c1.54,1.07,3.42,0.78,5.17,0.5
		c1.28,3.56,2.55,7.14,3.8,10.72c-2.63,3.81-5.57,7.42-9.04,10.49c-3.95,3.54-7.99,7.29-9.96,12.34
		c-2.99,6.36-3.77,14.42-9.82,18.84c-2.28,1.94-5.83,1.3-7.19-1.39c-6.18-10.09-2.53-22.29-4.51-33.31c-0.5-0.32-1.5-0.95-2-1.27
		c-6.14-4.25-13.83-4.67-21.02-5.09c-4.78-1.29-7.33-6.47-8.3-10.95c-0.07-3.75,0.92-7.53,3.13-10.59c2.07-3.21,5.41-5.57,6.92-9.12
		c0.75-5.91-0.8-12.1,1.31-17.83c1.38-3.11,4.18-5.22,6.26-7.83c2.49-3.22,5.51-6.28,6.58-10.33c1.31-4.72,2.17-9.99,5.92-13.5
		c6.46-4.92,16.03-5.14,23.12-1.55c-0.45,3.17-1.76,6.13-2.52,9.24c4.14,0.1,8.27-0.29,12.25-1.47c4.86-1.42,10.45-0.38,14.88-3.13
		c2.16-3.19,1.7-8.51,6.04-9.85C467.84,589.38,477.07,589.69,486.01,589.33z"/>
	<path fill="#062A7A" d="M530.15,701.43c11.83-3.97,25.35,4.11,28.28,16c1.29,5.76-1.75,11.2-5.17,15.6
		c-3.94-3.71-7.79-8.17-13.32-9.37c-5.6-0.82-11.15,1.01-16.76,0.72c-0.31,0-0.93,0-1.24,0c-2.63-4.17-6.57-7.37-8.84-11.76
		c0.03-0.42,0.1-1.25,0.13-1.66C519.42,708.73,523.68,702.99,530.15,701.43z"/>
</g>
<g>
	<g>
		<path fill="#D70F0D" d="M382.51,426.13c6.11-0.98,12.33-0.36,18.49-0.54c8.75-0.35,17.4,1.09,26.08,1.89
			c6.96,0.08,13.59,2.4,20.38,3.62c19.45,3.71,37.94,11.17,55.54,20.08c7.89,4.23,15.58,8.87,22.91,14.02
			c7.01,5.24,14.46,9.98,20.62,16.26c8.19,7.1,16.02,14.66,22.69,23.23c21.48,25.18,37.23,55.27,45.55,87.31
			c1.7,9.05,4.4,17.91,5.55,27.06c0.2,4.33,0.13,8.69,1,12.97c0.51,9.5,0.18,19.04,0.23,28.55c-2.22,44.96-18.53,89.24-46.41,124.64
			c-4.61,6.62-10.52,12.12-15.74,18.23c-20.25,21.27-44.98,38.07-71.83,49.84c-15.23,6.44-31.09,11.63-47.45,14.22
			c-24.83,5.37-50.6,4.96-75.64,1.4c-44.51-6.94-86.92-27.71-119.16-59.25c-3.73-3.24-7.3-6.69-10.42-10.53
			c-11.24-12.03-20.8-25.58-29.1-39.76c-5.95-11.63-12.35-23.13-16.3-35.64c-8.78-23.82-13.22-49.21-13.02-74.58
			c0.11-4.83-0.3-9.71,0.6-14.48c0.74-4.08,0.14-8.26,0.68-12.36c2.56-16.36,5.24-32.89,11.39-48.35
			c9.02-24.62,21.86-47.96,38.82-68.01c8-9.6,16.95-18.32,26.12-26.77c12.89-10.4,26.33-20.28,41.15-27.76
			c19.86-10.59,41.39-17.9,63.48-22.13C366.52,427.25,374.64,427.77,382.51,426.13z M431.42,441.55c6.71,4.47,14.29,7.5,20.78,12.35
			c7.82,5.33,14.14,12.43,20.8,19.07c7.11,7.08,12.66,15.49,18.09,23.88c5.94,9.35,11.02,19.23,15.42,29.39
			c0.88,1.42,1.19,3.54,2.78,4.32c6.68,0.78,13.09-1.73,19.43-3.41c11.08-3.51,22.54-6.31,32.81-11.92
			c-6-8.46-13.77-15.4-21.06-22.7c-15.34-13.71-32.61-25.25-51.21-34.05c-11.96-5.89-24.72-9.84-37.42-13.73
			C445.13,443.25,438.34,441.4,431.42,441.55z M353.33,443.16c-11.29,2.33-22.15,6.24-32.96,10.15
			c-18.3,7.63-35.55,17.7-51.28,29.77c-10.19,8.81-20.71,17.39-29.02,28.1c8.74,5.79,18.94,8.74,28.75,12.14
			c7.08,1.81,13.89,5.27,21.32,5.3c3.5-4.41,4.98-10,7.61-14.92c7.21-13.9,15.65-27.23,25.88-39.13
			c9.14-9.88,19.05-19.29,30.81-26.02c3.26-1.81,6.53-3.65,9.49-5.96C360.39,442.42,356.79,442.28,353.33,443.16z M367.26,454.75
			c-10.76,6.43-21.34,13.49-29.87,22.77c-11.27,10.89-19.47,24.39-27.14,37.93c-2.69,5.43-5.85,10.74-7.11,16.74
			c22.33,4.84,45.05,7.83,67.86,8.66c2.31,0.38,4.64,0.61,6.99,0.61c5.12-0.16,10.15,1.4,15.28,0.78
			c0.16-31.6,0.09-63.19,0.01-94.78C384.32,448.49,375.38,450.77,367.26,454.75z M407.73,449.34l-1.26,0.08
			c-0.36,7.52-0.08,15.05-0.17,22.58c0.13,22.84-0.22,45.69,0.16,68.53c13.26,0.51,26.56,0.12,39.83-0.02
			c12.56-1.82,25.32-1.96,37.79-4.5c3.28-0.55,6.85-0.55,9.66-2.6c0.05-2.83,0.25-5.82-0.99-8.44c-3.27-7.81-7.99-14.87-12.22-22.17
			c-5.7-8.31-11.35-16.73-18.09-24.24c-11.42-10.49-23.61-20.95-38.48-26.11C418.72,450.71,413.33,448.83,407.73,449.34z
			 M230.68,523.46c-4.3,4.28-7.37,9.63-10.6,14.73c-11.51,18.13-19.69,38.25-24.98,59.03c-1.43,6.89-3.98,13.71-3.62,20.83
			c4.92,6.37,12.14,10.54,18.96,14.62c12.3,6.73,25.28,12.29,38.77,16.14c3.99,1.08,7.83,3.29,12.1,2.81l0.34-0.89
			c1.58,3.13,3.81,5.88,6.28,8.35c3.64,3.73,8.74,5.32,13.08,8.01c0.53,0.88,0.69,2.33,1.93,2.53c-3.25,5.67-0.09,12.15-0.38,18.21
			c1.19,8.11,2.38,16.24,3.84,24.32c4.75,22.01,10.95,43.93,21.17,64.08c0.95,1.54,1.88,3.31,3.68,4
			c8.32,2.33,17.03,2.31,25.46,4.07c6.8,0.23,33,2.21,39.35,2.42c4.89,0.83,9.87,1.1,14.82,0.76c0.42-0.29,1.25-0.85,1.66-1.13
			c0.08-34.89,0.28-69.79-0.11-104.67c-2.9-1.53-6.23-1.21-9.39-1.27c-8.68,0.09-17.38,0.22-26.05-0.14
			c-4.81-1.05-9.78-0.49-14.58-1.54c-2.02-0.44-4.16-0.42-5.81,1.01c-4.59-2.03-8.53-5.34-13.27-7.05
			c-3.91-0.78-7.91-0.04-11.78,0.63c-5.98,0.93-11.93-1.12-17.27-3.65c-3.51-1.67-6.27-6.74-3.42-10.14
			c1.47,0.49,2.99,0.87,4.56,0.93c5.93,0.26,11.69,1.84,17.56,2.59c9.84,0.92,19.58,2.71,29.44,3.41c4.79-0.11,9.56,0.25,14.31,0.94
			c6.25-0.14,12.38,1.79,18.65,0.91c0.97,4.48,3.52,9.66,8.3,10.95c7.19,0.42,14.88,0.84,21.02,5.09
			c-0.08,11.55,0.27,23.11-0.36,34.65c0.08,22.59-0.04,45.2,0.08,67.79c0.06-0.2,0.19-0.6,0.25-0.8
			c-0.1-21.65,0.03-43.33-0.08-64.99c0.01-3.53,0.05-7.07,0.66-10.55c0.44,4.17,0.26,8.37,0.3,12.55
			c-0.04,20.02-0.02,40.03-0.04,60.05c-0.18,1.6,0.47,3.08,1.4,4.37c7.98,0.16,16.04,0.45,23.94-0.82
			c4.07-0.08,8.13-0.29,12.15-0.95c11.42-0.3,22.64-2.62,34-3.52c3.63-0.71,7.38-1.07,10.86-2.38c2.47-0.96,3.53-3.62,4.67-5.8
			c5.91-12.98,10.96-26.38,14.6-40.17c2.61-6.9,3-14.39,5.97-21.16c2.27,4.39,6.21,7.59,8.84,11.76c0.31,0,0.93,0,1.24,0
			c-1.94-0.38-1.7,2.31-2.24,3.48c-1.69,8.76-4.69,17.2-7.45,25.67c-2.39,7.5-5.96,14.55-8.42,22.03
			c7.38,0.39,14.34-2.43,21.31-4.41c20.97-5.77,41.49-14.49,58.63-28.08c5.68-4.16,7.39-11.28,10-17.43
			c6.76-16.93,10.95-34.77,13.42-52.8c0.17-6.64,1.57-13.18,1.12-19.84c-0.46-5.22,1.47-11.13-2.02-15.61
			c-7.37,3.85-14.29,8.56-21.93,11.88c-17.81,7.2-35.92,14.14-54.9,17.55c-1.35,5.97-1.48,12.13-2.25,18.19
			c0.5,5.7-2.17,11.01-2.08,16.66c0.95-0.06,2.83-0.18,3.78-0.24c-6.47,1.56-10.73,7.3-16.92,9.53c-0.07-5.55,1.58-10.93,1.42-16.48
			c3.76-1.11,7.29-3.08,10.44-5.4c0.9-1.99,0.53-4.37,0.3-6.47c-2.37-2.18-5.09-3.91-7.73-5.7c-0.24-1.91,0.13-4.08-1.4-5.52
			c-2.86-0.07-5.74-0.16-8.56,0.32c0.72-0.57,1.47-1.1,2.21-1.64c-0.16-2.15-1.47-4.81,0.49-6.48c4.94-5.55,10.82-10.86,18.26-12.58
			c0.2-0.62,0.59-1.85,0.79-2.47c0.31,1.75,0.84,3.46,1.27,5.2c7.91-0.87,15.33-3.92,22.88-6.27c11.03-3.58,21.51-8.62,31.94-13.63
			c5.3-2.64,10.19-5.99,15.02-9.38c3.14-2.44,8.23-5.21,6.64-9.96c-1.26-5.52-2.3-11.09-3.55-16.61
			c-2.84-13.94-8.87-26.88-14.35-39.92c-5.23-10.28-10.92-20.4-17.92-29.58c-2.54-0.32-5.19-0.19-7.55,0.87
			c-11.27,4.59-22.96,7.99-34.66,11.26c-4.64,1.28-9.67,1.57-13.86,4.16c-0.52,6.02,2.09,11.58,3.69,17.24
			c2.27,7.78,4.06,15.69,5.84,23.59c0.94,3.65,0.67,7.44,0.7,11.17c-1.27,0.19-2.54,0.38-3.8,0.57c-3.83,0.94-7.02-2.11-9.36-4.74
			c1.44-2.74,0.11-5.67-0.52-8.43c-1.99-6.58-2.67-13.47-4.83-19.99c-1.48-4.34-2.37-8.84-3.96-13.13c-0.87-2.07-2.38-4.86-5.04-4.4
			c-7.47,1.32-14.87,3.14-22.44,3.81c-7.89,0.3-15.63,2.47-23.57,2.13c-5.38-0.24-10.63,1.22-16.01,1.12
			c-9.77,1.52-19.69,0.63-29.54,0.91c-0.55,2.09-1.05,4.23-0.97,6.42c0.04,12.72-0.01,25.44,0,38.16c-3.75,3.51-4.61,8.78-5.92,13.5
			c-1.07,4.05-4.09,7.11-6.58,10.33c1.35-5.17-0.17-10.67-0.37-15.93c-0.06-17.45,0.08-34.89-0.09-52.33
			c-8.22,0.03-16.34-1.14-24.54-1.46c-6.25-1.4-12.71-0.09-18.97-1.38c-4.7-0.38-9.31-1.43-14.03-1.51
			c-12.57-1.25-24.87-4.39-37.37-6.04c-3.54,10.4-6.81,20.92-9.39,31.6c-3.84,1.06-8,1.03-11.68-0.58
			c1.3-9.48,4.41-18.56,7.21-27.67c0.64-1.96,0.8-4.02,0.99-6.05c-6.09-2.43-12.6-3.47-18.76-5.64
			c-10.63-3.29-21.12-7.11-31.12-12.01C233.58,523.32,232.08,523.33,230.68,523.46z M189.67,638.06
			c-2.75,13.58-0.03,27.39,1.01,40.99c1.19,10.55,4.26,20.75,6.97,30.98c4.2,11.82,7.89,24.02,14.68,34.67
			c6.66,6.58,15.31,10.64,23.54,14.9c12.19,5.17,24.66,9.72,37.5,12.98c6.42,1.66,12.74,4.22,19.47,4.09
			c-0.2-2.65-0.71-5.26-1.8-7.69c-10.82-25.58-17.32-52.86-20.72-80.39c-1.53-6.49-0.05-13.32-2.24-19.69
			c-0.56-1.85-2.7-2.06-4.26-2.59c-12.66-3.1-25.26-6.67-37.33-11.64c-10.14-3.73-20.04-8.18-29.25-13.84
			C194.95,639.34,192.39,638.34,189.67,638.06z M515.39,787.19c-6.18,1.38-12.57,2.22-18.42,4.71c-2.42,2.42-3.92,5.55-5.76,8.39
			c-5.15,8.03-10.63,15.86-16.9,23.06c-12.16,13.8-27.13,25.06-43.8,32.85c12.55-1.53,25.16-3.69,37.03-8.2
			c15.56-5.31,30.59-12.33,44.36-21.33c8.21-4.79,15.28-11.19,22.75-17c12.99-11.2,25.11-23.56,34.9-37.71
			c-0.63-0.43-1.89-1.31-2.52-1.75C550.45,777.66,533.01,782.86,515.39,787.19z M231.15,774.69c4.12,6.71,9.79,12.27,15.05,18.06
			c4.38,4.98,8.98,9.8,14.19,13.93c23.06,20.04,50.29,35.5,79.78,43.74c8.46,2.68,17.18,5.28,26.14,5.12
			c-5.16-2.89-10.44-5.58-15.52-8.62c-8.63-5.74-16.19-12.9-23.72-19.99c-6.83-7.25-12.44-15.52-18.22-23.6
			c-3.16-4.51-4.92-11.45-11.31-12.24c-21.1-3.77-41.76-9.83-61.81-17.35C234.06,773.2,232.1,772.75,231.15,774.69z M448.95,797.96
			c-5.92,1.21-12.03-0.04-17.95,1.15c-7.06,0.81-14.18,0.1-21.26,0.46c-1.9-0.01-4.21,1.3-4.16,3.42
			c-0.16,12.67,0.01,25.35-0.1,38.03c-0.06,2.9,0.16,5.8,0.86,8.63c7.29-1.52,14.79-2.6,21.64-5.66
			c22.42-10.15,40.98-28.03,52.97-49.43c-2.58,0.01-5.18-0.14-7.72,0.33C465.18,796.36,456.95,796.23,448.95,797.96z M320.29,796.38
			c1.76,5.97,6.19,10.5,9.69,15.48c11.16,13.29,24.49,25.54,40.92,31.84c6.76,2.77,13.98,6.1,21.46,4.64
			c0.51-15.47,0.26-30.99,0.16-46.47c-0.32-0.37-0.96-1.1-1.28-1.47C387.15,800.13,331.76,795.57,320.29,796.38z"/>
	</g>
	<path fill="#D70F0D" d="M485.53,663.61c2.09-1.98,5.69-0.74,6.81,1.7c1.16,2.53,1.75,5.28,2.51,7.97
		c-0.65,0.12-1.28,0.25-1.91,0.39c-9.57,2.32-19.37,3.3-29.15,4.14c-5.48,0.92-11.04,0.75-16.57,0.84
		c-1.25-3.58-2.52-7.16-3.8-10.72c7.9-0.93,15.84-2.14,23.82-1.36c1.61,1.66,3.09,4.17,5.75,4.02
		C478.38,671.36,481.51,666.14,485.53,663.61z"/>
</g>
</svg>
